<?xml version="1.0" encoding="utf-8"?>
<!-- Uploaded to: SVG Repo, www.svgrepo.com, Generator: SVG Repo Mixer Tools -->
<svg fill="#000000" height="800px" width="800px" version="1.1" id="Layer_1" xmlns="http://www.w3.org/2000/svg" xmlns:xlink="http://www.w3.org/1999/xlink" 
	 viewBox="0 0 256 256" xml:space="preserve">
<path d="M194.6,76c-3.4,25.9-18,36.3-27.1,42.7l0,0l0,0c-6.9,5-15.9,12.3-23.4,19.1c-4.9,4.4-8.3,7.8-10.7,10.5
	c-2.3-2.6-5.7-5.9-10.6-10.3c-7.7-6.9-16.7-14.2-23.4-19c-9.2-6.5-23.8-17-27.1-43.1H194.6 M186.8,4.3H79.9c0,0-18.5,28.5-18.5,60.3
	c0,39.2,20.1,54.1,32,62.6c13.8,9.8,34.8,28.5,34.8,31.4v78.6h-47v13.4h102.9v-13.4h-45.7v-78.6c0-3.2,21-21.8,34.8-31.7
	c12-8.5,32.1-23.4,32.1-62.6C205.3,32.6,186.8,4.3,186.8,4.3L186.8,4.3z M71.6,66c0-0.5,0-1,0-1.4c0-21.1,10.7-41.6,15.5-50h92.5
	c4.8,0,15.4,28.6,15.4,49.7c0,0.6,0,1.2,0,1.7H71.6L71.6,66z"/>
</svg>